<svg width="250" height="100" viewBox="0 0 250 100" xmlns="http://www.w3.org/2000/svg">
  <defs>
    <linearGradient id="logoGradient" x1="0%" y1="0%" x2="100%" y2="100%">
      <stop offset="0%" style="stop-color:#FF8A65;" />
      <stop offset="100%" style="stop-color:#FF5722;" />
    </linearGradient>
    <style>
      @import url('https://fonts.googleapis.com/css2?family=Nunito:wght@800&amp;display=swap');
      .logo-text {
        font-family: 'Nunito', 'Segoe UI', 'Helvetica Neue', sans-serif;
        font-size: 48px;
        font-weight: 800;
        fill: #ffffff;
      }
    </style>
  </defs>

  <path d="M25,5 C10,5 5,25 5,50 C5,75 10,95 25,95 L60,95 L75,80 L90,95 L225,95 C240,95 245,75 245,50 C245,25 240,5 225,5 Z" fill="url(#logoGradient)"/>
  
  <text x="115" y="65" text-anchor="middle" class="logo-text">PedAI</text>
  
  <g transform="translate(170, 14) scale(0.03)">
      <path fill="#FFFFFF" d="M256 0C167.6 0 96 71.6 96 160c0 88.4 160 352 160 352s160-263.6 160-352C416 71.6 344.4 0 256 0zm0 256c-53 0-96-43-96-96s43-96 96-96s96 43 96 96s-43 96-96 96z"/>
  </g>

  <g transform="translate(195, 60) scale(1.3)">
    <circle cx="0" cy="0" r="3" fill="#fff">
      <animate attributeName="cy" dur="1.8s" begin="0s" repeatCount="indefinite" values="0; -5; 0; 0" keyTimes="0; 0.25; 0.5; 1" />
    </circle>
    <circle cx="10" cy="0" r="3" fill="#fff">
      <animate attributeName="cy" dur="1.8s" begin="0.3s" repeatCount="indefinite" values="0; -5; 0; 0" keyTimes="0; 0.25; 0.5; 1" />
    </circle>
    <circle cx="20" cy="0" r="3" fill="#fff">
      <animate attributeName="cy" dur="1.8s" begin="0.6s" repeatCount="indefinite" values="0; -5; 0; 0" keyTimes="0; 0.25; 0.5; 1" />
    </circle>
  </g>

</svg>